<mxfile host="fbb7276d-64e0-46ed-abf2-ee3d1c61f9f6" modified="2020-09-02T22:32:16.732Z" agent="5.0 (Macintosh; Intel Mac OS X 10_15_6) AppleWebKit/537.36 (KHTML, like Gecko) Code/1.47.3 Chrome/78.0.3904.130 Electron/7.3.2 Safari/537.36" etag="rhCWsfJPYwBhrzvb0UqT" version="13.1.3">
    <diagram id="6hGFLwfOUW9BJ-s0fimq" name="Page-1">
        <mxGraphModel dx="498" dy="535" grid="1" gridSize="10" guides="1" tooltips="1" connect="1" arrows="1" fold="1" page="1" pageScale="1" pageWidth="690" pageHeight="980" math="0" shadow="0">
            <root>
                <mxCell id="0"/>
                <mxCell id="1" parent="0"/>
                <mxCell id="2" value="" style="pointerEvents=1;verticalLabelPosition=bottom;shadow=0;dashed=0;align=center;html=1;verticalAlign=top;shape=mxgraph.electrical.inductors.inductor_5;rotation=90;" vertex="1" parent="1">
                    <mxGeometry x="392" y="60" width="40" height="14" as="geometry"/>
                </mxCell>
                <mxCell id="5" value="" style="pointerEvents=1;verticalLabelPosition=bottom;shadow=0;dashed=0;align=center;html=1;verticalAlign=top;shape=mxgraph.electrical.inductors.inductor_5;rotation=90;" vertex="1" parent="1">
                    <mxGeometry x="392" y="100" width="40" height="14" as="geometry"/>
                </mxCell>
                <mxCell id="6" value="" style="pointerEvents=1;verticalLabelPosition=bottom;shadow=0;dashed=0;align=center;html=1;verticalAlign=top;shape=mxgraph.electrical.inductors.inductor_5;rotation=90;" vertex="1" parent="1">
                    <mxGeometry x="392" y="140" width="40" height="14" as="geometry"/>
                </mxCell>
                <mxCell id="7" value="" style="pointerEvents=1;verticalLabelPosition=bottom;shadow=0;dashed=0;align=center;html=1;verticalAlign=top;shape=mxgraph.electrical.inductors.inductor_5;rotation=90;" vertex="1" parent="1">
                    <mxGeometry x="392" y="180" width="40" height="14" as="geometry"/>
                </mxCell>
                <mxCell id="8" value="" style="pointerEvents=1;verticalLabelPosition=bottom;shadow=0;dashed=0;align=center;html=1;verticalAlign=top;shape=mxgraph.electrical.inductors.inductor_5;rotation=90;" vertex="1" parent="1">
                    <mxGeometry x="392" y="220" width="40" height="14" as="geometry"/>
                </mxCell>
                <mxCell id="9" value="" style="pointerEvents=1;verticalLabelPosition=bottom;shadow=0;dashed=0;align=center;html=1;verticalAlign=top;shape=mxgraph.electrical.inductors.inductor_5;rotation=90;" vertex="1" parent="1">
                    <mxGeometry x="392" y="260" width="40" height="14" as="geometry"/>
                </mxCell>
                <mxCell id="10" value="" style="pointerEvents=1;verticalLabelPosition=bottom;shadow=0;dashed=0;align=center;html=1;verticalAlign=top;shape=mxgraph.electrical.inductors.inductor_5;rotation=-220;" vertex="1" parent="1">
                    <mxGeometry x="376" y="294" width="40" height="14" as="geometry"/>
                </mxCell>
                <mxCell id="17" value="" style="pointerEvents=1;verticalLabelPosition=bottom;shadow=0;dashed=0;align=center;html=1;verticalAlign=top;shape=mxgraph.electrical.inductors.inductor_5;rotation=-220;" vertex="1" parent="1">
                    <mxGeometry x="350" y="316" width="40" height="14" as="geometry"/>
                </mxCell>
                <mxCell id="22" value="" style="pointerEvents=1;verticalLabelPosition=bottom;shadow=0;dashed=0;align=center;html=1;verticalAlign=top;shape=mxgraph.electrical.inductors.inductor_5;rotation=-220;" vertex="1" parent="1">
                    <mxGeometry x="326" y="337" width="40" height="14" as="geometry"/>
                </mxCell>
                <mxCell id="23" value="" style="pointerEvents=1;verticalLabelPosition=bottom;shadow=0;dashed=0;align=center;html=1;verticalAlign=top;shape=mxgraph.electrical.inductors.inductor_5;rotation=-220;" vertex="1" parent="1">
                    <mxGeometry x="300" y="359" width="40" height="14" as="geometry"/>
                </mxCell>
                <mxCell id="24" value="" style="pointerEvents=1;verticalLabelPosition=bottom;shadow=0;dashed=0;align=center;html=1;verticalAlign=top;shape=mxgraph.electrical.inductors.inductor_5;rotation=-220;" vertex="1" parent="1">
                    <mxGeometry x="276" y="380" width="40" height="14" as="geometry"/>
                </mxCell>
                <mxCell id="25" value="" style="pointerEvents=1;verticalLabelPosition=bottom;shadow=0;dashed=0;align=center;html=1;verticalAlign=top;shape=mxgraph.electrical.inductors.inductor_5;rotation=-220;" vertex="1" parent="1">
                    <mxGeometry x="250" y="402" width="40" height="14" as="geometry"/>
                </mxCell>
                <mxCell id="26" value="" style="pointerEvents=1;verticalLabelPosition=bottom;shadow=0;dashed=0;align=center;html=1;verticalAlign=top;shape=mxgraph.electrical.inductors.inductor_5;rotation=45;" vertex="1" parent="1">
                    <mxGeometry x="405" y="292" width="40" height="14" as="geometry"/>
                </mxCell>
                <mxCell id="28" value="" style="pointerEvents=1;verticalLabelPosition=bottom;shadow=0;dashed=0;align=center;html=1;verticalAlign=top;shape=mxgraph.electrical.inductors.inductor_5;rotation=45;" vertex="1" parent="1">
                    <mxGeometry x="428" y="315" width="40" height="14" as="geometry"/>
                </mxCell>
                <mxCell id="29" value="" style="pointerEvents=1;verticalLabelPosition=bottom;shadow=0;dashed=0;align=center;html=1;verticalAlign=top;shape=mxgraph.electrical.inductors.inductor_5;rotation=45;" vertex="1" parent="1">
                    <mxGeometry x="451" y="338" width="40" height="14" as="geometry"/>
                </mxCell>
                <mxCell id="30" value="" style="pointerEvents=1;verticalLabelPosition=bottom;shadow=0;dashed=0;align=center;html=1;verticalAlign=top;shape=mxgraph.electrical.inductors.inductor_5;rotation=45;" vertex="1" parent="1">
                    <mxGeometry x="474" y="361" width="40" height="14" as="geometry"/>
                </mxCell>
                <mxCell id="31" value="" style="pointerEvents=1;verticalLabelPosition=bottom;shadow=0;dashed=0;align=center;html=1;verticalAlign=top;shape=mxgraph.electrical.inductors.inductor_5;rotation=45;" vertex="1" parent="1">
                    <mxGeometry x="497" y="383.5" width="40" height="14" as="geometry"/>
                </mxCell>
                <mxCell id="32" value="" style="pointerEvents=1;verticalLabelPosition=bottom;shadow=0;dashed=0;align=center;html=1;verticalAlign=top;shape=mxgraph.electrical.inductors.inductor_5;rotation=45;" vertex="1" parent="1">
                    <mxGeometry x="520" y="406.5" width="40" height="14" as="geometry"/>
                </mxCell>
                <mxCell id="33" value="" style="ellipse;whiteSpace=wrap;html=1;aspect=fixed;fillColor=#000000;strokeColor=#000000;" vertex="1" parent="1">
                    <mxGeometry x="408" y="285" width="5" height="5" as="geometry"/>
                </mxCell>
                <mxCell id="35" value="" style="endArrow=none;html=1;entryX=0;entryY=0.645;entryDx=0;entryDy=0;entryPerimeter=0;" edge="1" parent="1" target="2">
                    <mxGeometry width="50" height="50" relative="1" as="geometry">
                        <mxPoint x="200" y="47" as="sourcePoint"/>
                        <mxPoint x="390" y="50" as="targetPoint"/>
                    </mxGeometry>
                </mxCell>
                <mxCell id="36" value="" style="endArrow=none;html=1;entryX=1;entryY=0.645;entryDx=0;entryDy=0;entryPerimeter=0;" edge="1" parent="1" target="25">
                    <mxGeometry width="50" height="50" relative="1" as="geometry">
                        <mxPoint x="198.03" y="420.5" as="sourcePoint"/>
                        <mxPoint x="407.9999999999999" y="420.5" as="targetPoint"/>
                    </mxGeometry>
                </mxCell>
                <mxCell id="37" value="" style="endArrow=none;html=1;entryX=1;entryY=0.645;entryDx=0;entryDy=0;entryPerimeter=0;" edge="1" parent="1" target="32">
                    <mxGeometry width="50" height="50" relative="1" as="geometry">
                        <mxPoint x="198.03" y="480" as="sourcePoint"/>
                        <mxPoint x="590" y="400" as="targetPoint"/>
                        <Array as="points">
                            <mxPoint x="553" y="480"/>
                        </Array>
                    </mxGeometry>
                </mxCell>
                <mxCell id="38" value="U相" style="text;html=1;strokeColor=none;fillColor=none;align=center;verticalAlign=middle;whiteSpace=wrap;rounded=0;" vertex="1" parent="1">
                    <mxGeometry x="160" y="37" width="40" height="20" as="geometry"/>
                </mxCell>
                <mxCell id="39" value="V相" style="text;html=1;strokeColor=none;fillColor=none;align=center;verticalAlign=middle;whiteSpace=wrap;rounded=0;" vertex="1" parent="1">
                    <mxGeometry x="160" y="470" width="40" height="20" as="geometry"/>
                </mxCell>
                <mxCell id="40" value="W相" style="text;html=1;strokeColor=none;fillColor=none;align=center;verticalAlign=middle;whiteSpace=wrap;rounded=0;" vertex="1" parent="1">
                    <mxGeometry x="160" y="411" width="40" height="20" as="geometry"/>
                </mxCell>
            </root>
        </mxGraphModel>
    </diagram>
</mxfile>